<svg version="1.1" id="Layer_1" xmlns="http://www.w3.org/2000/svg" xmlns:xlink="http://www.w3.org/1999/xlink" x="0px" y="0px"
	 width="100%" viewBox="0 0 1080 1080" enable-background="new 0 0 1080 1080" xml:space="preserve">
<path fill="#000000" opacity="1.000000" stroke="none" 
	d="
M582.000000,1081.000000 
	C388.022339,1081.000000 194.544662,1081.000000 1.033493,1081.000000 
	C1.033493,721.063904 1.033493,361.127747 1.033493,1.095806 
	C360.894562,1.095806 720.789124,1.095806 1080.841797,1.095806 
	C1080.841797,360.999939 1080.841797,720.999939 1080.841797,1081.000000 
	C914.793945,1081.000000 748.646973,1081.000000 582.000000,1081.000000 
M571.500854,549.807861 
	C538.744080,549.807861 505.987335,549.807861 472.716095,549.807861 
	C472.716095,547.150085 472.716125,545.186462 472.716125,543.222778 
	C472.716095,518.727966 472.684906,494.233093 472.732880,469.738373 
	C472.749786,461.118652 471.650970,462.598785 479.845459,460.935089 
	C542.870544,448.139221 605.910156,435.415161 668.942139,422.653381 
	C670.519409,422.334076 672.060669,421.837158 674.013489,421.318146 
	C672.572449,414.321320 671.217651,407.743439 669.744751,400.592163 
	C581.823364,418.371857 494.519867,436.026581 406.639374,453.797974 
	C408.050049,461.060730 409.361145,467.810913 410.726654,474.841064 
	C424.600800,472.050934 437.699005,469.416840 451.516083,466.638214 
	C451.516083,538.726135 451.516083,609.784424 451.516083,681.378418 
	C453.703827,681.378418 455.332642,681.378479 456.961487,681.378479 
	C527.946411,681.378418 598.931396,681.378357 669.916321,681.377991 
	C670.749451,681.377991 671.773560,681.680054 672.375122,681.305603 
	C673.544678,680.577515 675.322144,679.508545 675.369263,678.510986 
	C675.649963,672.573120 675.507935,666.615234 675.507935,660.044189 
	C607.701538,660.044189 540.480164,660.044189 473.024292,660.044189 
	C473.024292,630.158264 473.024292,600.909851 473.024292,571.063843 
	C540.554626,571.063843 607.779968,571.063843 675.192932,571.063843 
	C675.192932,563.733948 675.192932,557.005249 675.192932,549.807922 
	C640.746033,549.807922 606.623474,549.807922 571.500854,549.807861 
M675.509094,525.434875 
	C675.508728,519.942566 675.524048,514.450195 675.505127,508.957947 
	C675.441406,490.438507 663.724487,478.689514 645.220947,478.672272 
	C614.430908,478.643585 583.640808,478.659302 552.850769,478.674866 
	C551.104980,478.675751 549.359375,478.844299 547.777222,478.926331 
	C547.777222,498.109863 547.777222,516.667969 547.777222,535.224243 
	C590.479919,535.224243 632.801819,535.224243 675.509033,535.224243 
	C675.509033,532.024353 675.509033,529.215149 675.509094,525.434875 
M547.398010,625.499390 
	C547.398010,632.117920 547.398010,638.736450 547.398010,645.474182 
	C590.387512,645.474182 632.733093,645.474182 675.507690,645.474182 
	C675.507690,636.614868 675.524414,628.142761 675.504333,619.670776 
	C675.458862,600.475098 663.891357,588.936035 644.606628,588.918396 
	C614.117371,588.890442 583.628113,588.910095 553.138855,588.909607 
	C551.359863,588.909546 549.580933,588.909546 548.027039,588.909546 
	C547.698181,589.886780 547.501160,590.200562 547.499878,590.515076 
	C547.454590,601.843201 547.427612,613.171326 547.398010,625.499390 
M502.606659,497.108612 
	C495.408173,502.846680 492.666107,510.297089 494.719757,519.212952 
	C496.589020,527.328064 501.825745,532.634827 509.846588,534.859131 
	C519.438416,537.519043 529.269531,533.223694 534.070007,524.563538 
	C538.721069,516.172852 537.139954,505.668060 530.208557,498.908539 
	C522.926270,491.806885 512.750427,490.975311 502.606659,497.108612 
M534.183350,614.369019 
	C529.154724,605.924988 521.749084,602.037476 512.008728,603.488403 
	C503.314545,604.783569 497.491089,610.027588 495.025055,618.370850 
	C492.371735,627.347717 494.900482,635.111206 502.076782,641.195740 
	C509.252411,647.279663 520.242920,647.486023 527.989624,641.794922 
	C536.290527,635.696594 538.730164,625.723450 534.183350,614.369019 
z"/>
<path fill="#EC9E80" opacity="1.000000" stroke="none" 
	d="
M572.000854,549.807861 
	C606.623474,549.807922 640.746033,549.807922 675.192932,549.807922 
	C675.192932,557.005249 675.192932,563.733948 675.192932,571.063843 
	C607.779968,571.063843 540.554626,571.063843 473.024292,571.063843 
	C473.024292,600.909851 473.024292,630.158264 473.024292,660.044189 
	C540.480164,660.044189 607.701538,660.044189 675.507935,660.044189 
	C675.507935,666.615234 675.649963,672.573120 675.369263,678.510986 
	C675.322144,679.508545 673.544678,680.577515 672.375122,681.305603 
	C671.773560,681.680054 670.749451,681.377991 669.916321,681.377991 
	C598.931396,681.378357 527.946411,681.378418 456.961487,681.378479 
	C455.332642,681.378479 453.703827,681.378418 451.516083,681.378418 
	C451.516083,609.784424 451.516083,538.726135 451.516083,466.638214 
	C437.699005,469.416840 424.600800,472.050934 410.726654,474.841064 
	C409.361145,467.810913 408.050049,461.060730 406.639374,453.797974 
	C494.519867,436.026581 581.823364,418.371857 669.744751,400.592163 
	C671.217651,407.743439 672.572449,414.321320 674.013489,421.318146 
	C672.060669,421.837158 670.519409,422.334076 668.942139,422.653381 
	C605.910156,435.415161 542.870544,448.139221 479.845459,460.935089 
	C471.650970,462.598785 472.749786,461.118652 472.732880,469.738373 
	C472.684906,494.233093 472.716095,518.727966 472.716125,543.222778 
	C472.716125,545.186462 472.716095,547.150085 472.716095,549.807861 
	C505.987335,549.807861 538.744080,549.807861 572.000854,549.807861 
z"/>
<path fill="#EFA081" opacity="1.000000" stroke="none" 
	d="
M675.509033,525.920410 
	C675.509033,529.215149 675.509033,532.024353 675.509033,535.224243 
	C632.801819,535.224243 590.479919,535.224243 547.777222,535.224243 
	C547.777222,516.667969 547.777222,498.109863 547.777222,478.926331 
	C549.359375,478.844299 551.104980,478.675751 552.850769,478.674866 
	C583.640808,478.659302 614.430908,478.643585 645.220947,478.672272 
	C663.724487,478.689514 675.441406,490.438507 675.505127,508.957947 
	C675.524048,514.450195 675.508728,519.942566 675.509033,525.920410 
z"/>
<path fill="#EFA081" opacity="1.000000" stroke="none" 
	d="
M547.398071,624.999451 
	C547.427612,613.171326 547.454590,601.843201 547.499878,590.515076 
	C547.501160,590.200562 547.698181,589.886780 548.027039,588.909546 
	C549.580933,588.909546 551.359863,588.909546 553.138855,588.909607 
	C583.628113,588.910095 614.117371,588.890442 644.606628,588.918396 
	C663.891357,588.936035 675.458862,600.475098 675.504333,619.670776 
	C675.524414,628.142761 675.507690,636.614868 675.507690,645.474182 
	C632.733093,645.474182 590.387512,645.474182 547.398010,645.474182 
	C547.398010,638.736450 547.398010,632.117920 547.398071,624.999451 
z"/>
<path fill="#EC9E80" opacity="1.000000" stroke="none" 
	d="
M502.899689,496.904663 
	C512.750427,490.975311 522.926270,491.806885 530.208557,498.908539 
	C537.139954,505.668060 538.721069,516.172852 534.070007,524.563538 
	C529.269531,533.223694 519.438416,537.519043 509.846588,534.859131 
	C501.825745,532.634827 496.589020,527.328064 494.719757,519.212952 
	C492.666107,510.297089 495.408173,502.846680 502.899689,496.904663 
z"/>
<path fill="#EC9E80" opacity="1.000000" stroke="none" 
	d="
M534.359619,614.701599 
	C538.730164,625.723450 536.290527,635.696594 527.989624,641.794922 
	C520.242920,647.486023 509.252411,647.279663 502.076782,641.195740 
	C494.900482,635.111206 492.371735,627.347717 495.025055,618.370850 
	C497.491089,610.027588 503.314545,604.783569 512.008728,603.488403 
	C521.749084,602.037476 529.154724,605.924988 534.359619,614.701599 
z"/>
</svg>