<svg version="1.1" id="Layer_1" xmlns="http://www.w3.org/2000/svg" xmlns:xlink="http://www.w3.org/1999/xlink" x="0px" y="0px"
	 width="100%" viewBox="0 0 1080 1080" enable-background="new 0 0 1080 1080" xml:space="preserve">
<path fill="#000000" opacity="1.000000" stroke="none" 
	d="
M706.000000,1081.000000 
	C470.693756,1081.000000 235.887527,1081.000000 1.040648,1081.000000 
	C1.040648,721.068665 1.040648,361.137268 1.040648,1.102961 
	C360.889771,1.102961 720.779602,1.102961 1080.834717,1.102961 
	C1080.834717,360.999939 1080.834717,720.999939 1080.834717,1081.000000 
	C956.136780,1081.000000 831.318420,1081.000000 706.000000,1081.000000 
M639.237793,282.930786 
	C651.116089,280.418549 662.994385,277.906311 675.365845,275.289734 
	C673.835754,267.837982 672.317078,260.441742 670.623840,252.195496 
	C582.530457,270.010590 494.959015,287.720093 406.347076,305.640045 
	C407.417542,313.389069 408.496216,321.197388 409.574432,329.002411 
	C423.569122,326.196838 436.553253,323.593872 450.141296,320.869843 
	C450.141296,392.424316 450.141296,463.640259 450.141296,534.618896 
	C525.762207,534.618896 600.821899,534.618896 675.762817,534.618896 
	C675.762817,526.956970 675.762817,519.678162 675.762817,511.938324 
	C608.468140,511.938324 541.408752,511.938324 474.295776,511.938324 
	C474.295776,482.742157 474.295776,454.014954 474.295776,424.820923 
	C541.649597,424.820923 608.708923,424.820923 675.642334,424.820923 
	C675.642334,416.949921 675.642334,409.551819 675.642334,401.699036 
	C608.226196,401.699036 541.166931,401.699036 474.185120,401.699036 
	C474.185120,372.924622 474.185120,344.619507 474.185120,316.120880 
	C480.199432,314.899658 486.074280,313.706604 491.949188,312.513855 
	C510.855865,308.675262 529.763367,304.841003 548.668945,300.996887 
	C564.573059,297.763092 580.468079,294.484558 596.379639,291.287628 
	C610.366577,288.477448 624.370850,285.752991 639.237793,282.930786 
M671.359497,499.999207 
	C672.802979,499.923950 674.246521,499.848724 676.000000,499.757294 
	C676.000000,488.976288 676.000610,478.509857 675.999939,468.043427 
	C675.999023,453.638306 663.258118,441.003479 648.715332,441.001465 
	C616.222656,440.996979 583.730042,441.000183 551.237366,441.000244 
	C549.619507,441.000244 548.001648,441.000244 546.259521,441.000244 
	C546.259521,460.842865 546.259521,480.235657 546.259521,499.999207 
	C587.807617,499.999207 629.095398,499.999207 671.359497,499.999207 
M581.500000,330.999634 
	C569.739014,330.999634 557.978088,330.999634 546.350098,330.999634 
	C546.350098,350.677429 546.350098,369.739655 546.350098,388.626862 
	C589.755310,388.626862 632.811523,388.626862 676.000000,388.626862 
	C676.000000,377.761475 675.772522,367.262421 676.059875,356.777466 
	C676.389526,344.747772 662.219849,330.723663 649.986511,330.905029 
	C627.495483,331.238495 604.995972,330.999817 581.500000,330.999634 
M537.451355,653.944031 
	C536.081421,651.598328 535.243347,648.181519 533.210022,647.171875 
	C530.530457,645.841309 526.877197,646.066101 523.723511,646.395935 
	C522.982666,646.473328 522.165833,649.630371 522.072937,651.406677 
	C521.753052,657.527161 521.657288,663.663086 521.624329,669.793945 
	C521.563293,681.148804 521.606934,692.504272 521.606934,703.619385 
	C525.770020,703.619385 529.829956,703.619385 534.228821,703.619385 
	C534.228821,694.078857 534.228821,684.916016 534.228821,674.557007 
	C537.413635,679.715881 539.785217,683.971863 542.605286,687.906372 
	C543.627502,689.332642 545.769409,690.848022 547.314392,690.762756 
	C548.929565,690.673706 550.883972,689.009827 551.911621,687.503296 
	C554.562927,683.616577 556.784607,679.436768 559.177856,675.374023 
	C559.447144,675.440369 559.716370,675.506775 559.985596,675.573120 
	C559.985596,684.911926 559.985596,694.250732 559.985596,703.742065 
	C564.514282,703.742065 568.571106,703.742065 572.991516,703.742065 
	C572.991516,685.383179 573.014526,667.279419 572.928711,649.176208 
	C572.924072,648.196350 572.265869,646.793701 571.473206,646.316162 
	C567.739197,644.066711 560.161194,646.755249 558.000671,650.676453 
	C554.307312,657.379456 550.430481,663.981323 546.707153,670.491882 
	C543.780823,665.116577 540.888550,659.803772 537.451355,653.944031 
M753.942688,700.538818 
	C760.694275,690.072693 760.723938,684.128601 754.071167,674.792542 
	C763.086792,665.182373 759.299316,649.087097 747.387268,645.928284 
	C743.818665,644.981934 739.923828,645.087830 736.174133,645.037903 
	C727.723328,644.925354 723.013000,648.959717 719.366760,659.103027 
	C717.762817,663.564941 720.388489,671.156433 724.918579,675.154907 
	C716.793640,685.004761 717.555176,695.393250 726.912476,702.353027 
	C731.017334,705.406128 748.263550,704.491028 753.942688,700.538818 
M513.999756,680.463867 
	C514.004211,674.804565 514.391296,669.112976 513.916809,663.494080 
	C513.317688,656.401306 510.434021,650.548462 503.690155,646.840942 
	C497.815491,643.611328 491.554565,644.489319 485.837555,645.448364 
	C480.761383,646.299927 476.840546,649.821289 474.632477,655.937500 
	C471.163422,665.546509 471.905731,675.138794 472.260895,684.701355 
	C472.446747,689.705383 474.449646,695.230896 477.264191,699.425781 
	C483.154205,708.204468 492.621063,704.687683 500.889404,704.471924 
	C502.862549,704.420349 505.042206,703.030334 506.698486,701.716064 
	C513.253113,696.514832 514.666687,689.324158 513.999756,680.463867 
M580.001709,666.777100 
	C580.432373,675.750671 579.029663,684.776978 581.882080,693.681885 
	C583.976074,700.218994 589.009399,704.908508 595.770752,704.993286 
	C598.765503,705.030823 601.761169,705.015625 604.756226,704.996216 
	C610.537476,704.958862 614.637573,702.503235 618.231384,697.722595 
	C621.993835,692.717651 621.395874,687.139648 621.796265,681.838928 
	C622.301208,675.154358 621.775635,668.295227 620.825378,661.635437 
	C620.295593,657.922363 618.565491,654.064148 616.385559,650.969116 
	C611.906921,644.610596 604.870361,644.914062 597.966064,644.930969 
	C591.708130,644.946289 586.610962,647.065063 583.945312,652.697876 
	C582.010437,656.786438 581.273010,661.441772 580.001709,666.777100 
M668.622620,657.117004 
	C667.146790,651.909668 663.840942,648.004883 658.541504,647.378296 
	C649.270142,646.282043 639.895813,646.056763 630.537354,645.464783 
	C629.984924,654.858643 629.302185,663.221130 629.054565,671.596436 
	C628.808716,679.912476 628.940857,688.242188 629.045898,696.564209 
	C629.070007,698.475220 629.314819,700.542603 630.111511,702.229370 
	C630.653992,703.377747 632.337585,704.725098 633.504517,704.719177 
	C640.412292,704.684509 647.316101,704.181458 654.225464,704.028442 
	C660.813660,703.882446 666.142212,700.382629 667.983643,694.022888 
	C671.436401,682.098022 670.866516,669.990540 668.622620,657.117004 
M503.764832,458.038208 
	C502.180969,459.184143 500.225616,460.041718 499.075134,461.524048 
	C492.837463,469.560638 490.105255,477.932465 496.015930,488.589233 
	C500.218079,496.165497 509.130432,501.979736 520.495544,499.152283 
	C531.006653,496.537262 536.186890,489.434692 537.760925,479.849060 
	C539.183899,471.183105 535.099060,463.544464 527.972412,458.739655 
	C520.733276,453.858978 512.518250,453.095032 503.764832,458.038208 
M324.001160,701.497864 
	C325.347351,706.003174 329.177307,705.294800 332.247314,704.828369 
	C334.558228,704.477234 338.017334,704.829895 338.131042,700.445190 
	C338.203247,697.659546 339.542755,694.906738 340.313843,692.139648 
	C345.567902,692.139648 350.536407,692.139648 355.312714,692.139648 
	C356.766846,696.196411 358.155548,700.070618 359.479309,703.763611 
	C363.796906,703.763611 367.747589,703.763611 372.054047,703.763611 
	C371.901215,701.736206 372.113373,699.853821 371.579895,698.214050 
	C367.153595,684.608582 362.928314,670.922546 357.966339,657.510986 
	C353.522583,645.500183 353.144287,645.640137 341.319366,646.178162 
	C340.240936,649.513367 339.125946,653.000488 337.985901,656.479309 
	C335.682037,663.509583 333.301361,670.515381 331.069794,677.568420 
	C328.643951,685.235535 326.351440,692.944824 324.001160,701.497864 
M517.249390,345.000214 
	C514.596924,345.082458 511.815918,344.674011 509.313782,345.329712 
	C496.794769,348.610443 490.146149,361.824493 494.076324,375.147949 
	C497.038452,385.189667 510.904816,391.857361 521.949219,388.550690 
	C531.667908,385.640961 538.794373,375.671967 537.996277,366.103088 
	C537.044861,354.697388 529.813110,347.010040 517.249390,345.000214 
M448.390625,691.986023 
	C444.769043,693.524475 440.450043,694.102783 439.240204,689.823853 
	C436.657318,680.688477 437.067352,671.184448 439.152191,661.943054 
	C439.580048,660.046570 442.204498,657.454773 443.950134,657.346924 
	C446.149048,657.211060 450.144043,658.957581 450.457367,660.487366 
	C451.477020,665.465393 454.440430,666.436646 458.550659,666.191589 
	C460.807404,666.057068 463.603455,666.191833 465.093689,664.940002 
	C466.158112,664.045898 466.003235,660.886108 465.451508,659.014832 
	C461.983948,647.253723 448.714600,640.954285 437.068787,645.454712 
	C431.613617,647.562805 427.639252,651.069458 425.971497,657.077332 
	C422.772552,668.601257 423.297699,680.192749 425.408691,691.680176 
	C426.643646,698.400330 430.587921,703.709656 438.005310,704.867432 
	C441.096527,705.349915 444.359863,704.666565 447.477234,705.055664 
	C459.546356,706.561951 468.588776,693.123352 465.346252,683.000000 
	C462.811615,683.000000 460.165314,683.132629 457.537842,682.966675 
	C454.194000,682.755493 451.700500,683.063843 451.669067,687.452881 
	C451.658356,688.952942 450.079559,690.441772 448.390625,691.986023 
M411.627167,666.914551 
	C415.667358,667.090149 418.749176,665.917847 417.935852,661.129700 
	C416.920776,655.153870 414.555481,649.523926 408.460419,647.353394 
	C404.124146,645.809082 399.289032,645.433472 394.634583,645.061584 
	C384.238525,644.230957 377.508331,653.101562 377.092712,662.023071 
	C376.674744,670.995300 376.445221,680.047302 377.169006,688.980347 
	C377.807587,696.861450 381.424286,703.142822 389.302673,704.556580 
	C394.391541,705.469727 399.816254,704.645203 405.078735,704.373047 
	C406.594788,704.294617 408.313141,703.760864 409.523773,702.871155 
	C416.170715,697.986572 418.966431,691.420837 417.792053,683.120178 
	C417.077271,683.068176 416.599548,682.987854 416.125549,683.005920 
	C410.396515,683.224304 403.204254,680.546814 402.500031,690.495300 
	C402.430664,691.474976 398.358948,692.722351 396.104370,692.810730 
	C394.485199,692.874268 391.628693,691.501038 391.326904,690.275635 
	C388.931824,680.549683 389.077545,670.653625 391.266266,660.927063 
	C391.628784,659.316162 394.648468,657.302368 396.460236,657.282349 
	C398.529541,657.259338 402.151917,658.968811 402.427887,660.429932 
	C403.416504,665.664368 406.861877,666.220703 411.627167,666.914551 
M704.454895,688.998535 
	C707.228271,688.998535 710.001648,688.998535 712.641541,688.998535 
	C712.641541,685.371826 712.641541,682.316101 712.641541,679.333008 
	C700.561279,679.333008 688.841370,679.333008 677.271545,679.333008 
	C677.271545,682.748596 677.271545,685.828125 677.271545,688.998474 
	C686.186707,688.998474 694.825317,688.998474 704.454895,688.998535 
z"/>
<path fill="#F2A283" opacity="1.000000" stroke="none" 
	d="
M638.802612,282.960724 
	C624.370850,285.752991 610.366577,288.477448 596.379639,291.287628 
	C580.468079,294.484558 564.573059,297.763092 548.668945,300.996887 
	C529.763367,304.841003 510.855865,308.675262 491.949188,312.513855 
	C486.074280,313.706604 480.199432,314.899658 474.185120,316.120880 
	C474.185120,344.619507 474.185120,372.924622 474.185120,401.699036 
	C541.166931,401.699036 608.226196,401.699036 675.642334,401.699036 
	C675.642334,409.551819 675.642334,416.949921 675.642334,424.820923 
	C608.708923,424.820923 541.649597,424.820923 474.295776,424.820923 
	C474.295776,454.014954 474.295776,482.742157 474.295776,511.938324 
	C541.408752,511.938324 608.468140,511.938324 675.762817,511.938324 
	C675.762817,519.678162 675.762817,526.956970 675.762817,534.618896 
	C600.821899,534.618896 525.762207,534.618896 450.141296,534.618896 
	C450.141296,463.640259 450.141296,392.424316 450.141296,320.869843 
	C436.553253,323.593872 423.569122,326.196838 409.574432,329.002411 
	C408.496216,321.197388 407.417542,313.389069 406.347076,305.640045 
	C494.959015,287.720093 582.530457,270.010590 670.623840,252.195496 
	C672.317078,260.441742 673.835754,267.837982 675.365845,275.289734 
	C662.994385,277.906311 651.116089,280.418549 638.802612,282.960724 
z"/>
<path fill="#F2A283" opacity="1.000000" stroke="none" 
	d="
M670.871338,499.999207 
	C629.095398,499.999207 587.807617,499.999207 546.259521,499.999207 
	C546.259521,480.235657 546.259521,460.842865 546.259521,441.000244 
	C548.001648,441.000244 549.619507,441.000244 551.237366,441.000244 
	C583.730042,441.000183 616.222656,440.996979 648.715332,441.001465 
	C663.258118,441.003479 675.999023,453.638306 675.999939,468.043427 
	C676.000610,478.509857 676.000000,488.976288 676.000000,499.757294 
	C674.246521,499.848724 672.802979,499.923950 670.871338,499.999207 
z"/>
<path fill="#F2A283" opacity="1.000000" stroke="none" 
	d="
M582.000000,330.999634 
	C604.995972,330.999817 627.495483,331.238495 649.986511,330.905029 
	C662.219849,330.723663 676.389526,344.747772 676.059875,356.777466 
	C675.772522,367.262421 676.000000,377.761475 676.000000,388.626862 
	C632.811523,388.626862 589.755310,388.626862 546.350098,388.626862 
	C546.350098,369.739655 546.350098,350.677429 546.350098,330.999634 
	C557.978088,330.999634 569.739014,330.999634 582.000000,330.999634 
z"/>
<path fill="#F2A283" opacity="1.000000" stroke="none" 
	d="
M537.723816,654.217529 
	C540.888550,659.803772 543.780823,665.116577 546.707153,670.491882 
	C550.430481,663.981323 554.307312,657.379456 558.000671,650.676453 
	C560.161194,646.755249 567.739197,644.066711 571.473206,646.316162 
	C572.265869,646.793701 572.924072,648.196350 572.928711,649.176208 
	C573.014526,667.279419 572.991516,685.383179 572.991516,703.742065 
	C568.571106,703.742065 564.514282,703.742065 559.985596,703.742065 
	C559.985596,694.250732 559.985596,684.911926 559.985596,675.573120 
	C559.716370,675.506775 559.447144,675.440369 559.177856,675.374023 
	C556.784607,679.436768 554.562927,683.616577 551.911621,687.503296 
	C550.883972,689.009827 548.929565,690.673706 547.314392,690.762756 
	C545.769409,690.848022 543.627502,689.332642 542.605286,687.906372 
	C539.785217,683.971863 537.413635,679.715881 534.228821,674.557007 
	C534.228821,684.916016 534.228821,694.078857 534.228821,703.619385 
	C529.829956,703.619385 525.770020,703.619385 521.606934,703.619385 
	C521.606934,692.504272 521.563293,681.148804 521.624329,669.793945 
	C521.657288,663.663086 521.753052,657.527161 522.072937,651.406677 
	C522.165833,649.630371 522.982666,646.473328 523.723511,646.395935 
	C526.877197,646.066101 530.530457,645.841309 533.210022,647.171875 
	C535.243347,648.181519 536.081421,651.598328 537.723816,654.217529 
z"/>
<path fill="#F2A283" opacity="1.000000" stroke="none" 
	d="
M753.618042,700.745972 
	C748.263550,704.491028 731.017334,705.406128 726.912476,702.353027 
	C717.555176,695.393250 716.793640,685.004761 724.918579,675.154907 
	C720.388489,671.156433 717.762817,663.564941 719.366760,659.103027 
	C723.013000,648.959717 727.723328,644.925354 736.174133,645.037903 
	C739.923828,645.087830 743.818665,644.981934 747.387268,645.928284 
	C759.299316,649.087097 763.086792,665.182373 754.071167,674.792542 
	C760.723938,684.128601 760.694275,690.072693 753.618042,700.745972 
M744.970642,661.574707 
	C743.365723,656.776978 739.485107,656.619019 736.265381,658.620850 
	C734.493652,659.722473 732.971191,663.781067 733.672119,665.612488 
	C734.431274,667.596008 738.234497,670.016479 740.125244,669.598816 
	C743.154480,668.929565 747.351990,667.201599 744.970642,661.574707 
M745.658447,684.157654 
	C744.950928,683.456299 744.167053,682.815918 743.549683,682.042542 
	C741.389343,679.336487 738.454956,678.941040 736.255615,681.105652 
	C734.549072,682.785339 732.958313,685.947388 733.394836,688.010681 
	C733.748230,689.680725 737.082947,691.522400 739.298218,691.830933 
	C744.107971,692.500793 745.436157,688.851624 745.658447,684.157654 
z"/>
<path fill="#F2A283" opacity="1.000000" stroke="none" 
	d="
M513.999695,680.955688 
	C514.666687,689.324158 513.253113,696.514832 506.698486,701.716064 
	C505.042206,703.030334 502.862549,704.420349 500.889404,704.471924 
	C492.621063,704.687683 483.154205,708.204468 477.264191,699.425781 
	C474.449646,695.230896 472.446747,689.705383 472.260895,684.701355 
	C471.905731,675.138794 471.163422,665.546509 474.632477,655.937500 
	C476.840546,649.821289 480.761383,646.299927 485.837555,645.448364 
	C491.554565,644.489319 497.815491,643.611328 503.690155,646.840942 
	C510.434021,650.548462 513.317688,656.401306 513.916809,663.494080 
	C514.391296,669.112976 514.004211,674.804565 513.999695,680.955688 
M496.446777,658.992798 
	C492.853363,657.552795 488.273987,656.864990 487.291473,661.087402 
	C485.142059,670.324341 484.513428,679.945374 487.207031,689.244141 
	C487.691559,690.916870 491.017548,692.733643 493.032715,692.734924 
	C495.228607,692.736328 498.931152,693.004822 499.041107,688.699890 
	C499.242432,680.818787 499.837860,672.942566 499.830658,665.064758 
	C499.828857,663.064392 498.177887,661.065552 496.446777,658.992798 
z"/>
<path fill="#F2A283" opacity="1.000000" stroke="none" 
	d="
M580.001709,666.310730 
	C581.273010,661.441772 582.010437,656.786438 583.945312,652.697876 
	C586.610962,647.065063 591.708130,644.946289 597.966064,644.930969 
	C604.870361,644.914062 611.906921,644.610596 616.385559,650.969116 
	C618.565491,654.064148 620.295593,657.922363 620.825378,661.635437 
	C621.775635,668.295227 622.301208,675.154358 621.796265,681.838928 
	C621.395874,687.139648 621.993835,692.717651 618.231384,697.722595 
	C614.637573,702.503235 610.537476,704.958862 604.756226,704.996216 
	C601.761169,705.015625 598.765503,705.030823 595.770752,704.993286 
	C589.009399,704.908508 583.976074,700.218994 581.882080,693.681885 
	C579.029663,684.776978 580.432373,675.750671 580.001709,666.310730 
M593.571777,676.771423 
	C593.719666,680.297058 593.676514,683.844177 594.068909,687.342407 
	C594.462402,690.850342 596.738403,692.894348 600.262817,692.940796 
	C603.461487,692.983093 606.742126,692.361572 606.971313,688.260193 
	C607.410767,680.392883 608.101746,672.480408 607.656128,664.645325 
	C607.391602,659.995056 603.205811,657.336304 599.501282,658.043762 
	C594.872681,658.927734 593.796143,662.245178 593.967957,666.450073 
	C594.096863,669.604675 593.940857,672.770996 593.571777,676.771423 
z"/>
<path fill="#F2A283" opacity="1.000000" stroke="none" 
	d="
M668.789734,657.499573 
	C670.866516,669.990540 671.436401,682.098022 667.983643,694.022888 
	C666.142212,700.382629 660.813660,703.882446 654.225464,704.028442 
	C647.316101,704.181458 640.412292,704.684509 633.504517,704.719177 
	C632.337585,704.725098 630.653992,703.377747 630.111511,702.229370 
	C629.314819,700.542603 629.070007,698.475220 629.045898,696.564209 
	C628.940857,688.242188 628.808716,679.912476 629.054565,671.596436 
	C629.302185,663.221130 629.984924,654.858643 630.537354,645.464783 
	C639.895813,646.056763 649.270142,646.282043 658.541504,647.378296 
	C663.840942,648.004883 667.146790,651.909668 668.789734,657.499573 
M641.999329,684.429871 
	C641.999329,686.862488 641.999329,689.295166 641.999329,692.003052 
	C644.365784,692.003052 646.210754,691.753967 647.964539,692.048584 
	C653.870728,693.040527 656.512878,689.122742 656.942749,683.143799 
	C657.239746,679.012634 657.001404,674.843018 657.000183,670.690552 
	C656.996948,659.546753 653.248718,656.470703 641.999329,658.660828 
	C641.999329,666.885498 641.999329,675.167114 641.999329,684.429871 
z"/>
<path fill="#F2A283" opacity="1.000000" stroke="none" 
	d="
M504.144531,457.977203 
	C512.518250,453.095032 520.733276,453.858978 527.972412,458.739655 
	C535.099060,463.544464 539.183899,471.183105 537.760925,479.849060 
	C536.186890,489.434692 531.006653,496.537262 520.495544,499.152283 
	C509.130432,501.979736 500.218079,496.165497 496.015930,488.589233 
	C490.105255,477.932465 492.837463,469.560638 499.075134,461.524048 
	C500.225616,460.041718 502.180969,459.184143 504.144531,457.977203 
z"/>
<path fill="#F2A283" opacity="1.000000" stroke="none" 
	d="
M324.000977,701.066772 
	C326.351440,692.944824 328.643951,685.235535 331.069794,677.568420 
	C333.301361,670.515381 335.682037,663.509583 337.985901,656.479309 
	C339.125946,653.000488 340.240936,649.513367 341.319366,646.178162 
	C353.144287,645.640137 353.522583,645.500183 357.966339,657.510986 
	C362.928314,670.922546 367.153595,684.608582 371.579895,698.214050 
	C372.113373,699.853821 371.901215,701.736206 372.054047,703.763611 
	C367.747589,703.763611 363.796906,703.763611 359.479309,703.763611 
	C358.155548,700.070618 356.766846,696.196411 355.312714,692.139648 
	C350.536407,692.139648 345.567902,692.139648 340.313843,692.139648 
	C339.542755,694.906738 338.203247,697.659546 338.131042,700.445190 
	C338.017334,704.829895 334.558228,704.477234 332.247314,704.828369 
	C329.177307,705.294800 325.347351,706.003174 324.000977,701.066772 
M347.006470,670.974731 
	C346.049103,673.865540 345.091736,676.756348 344.054749,679.887573 
	C346.845367,679.887573 349.140503,679.887573 352.489105,679.887573 
	C350.466278,676.312134 348.747009,673.273315 347.006470,670.974731 
z"/>
<path fill="#F2A283" opacity="1.000000" stroke="none" 
	d="
M517.696899,345.000549 
	C529.813110,347.010040 537.044861,354.697388 537.996277,366.103088 
	C538.794373,375.671967 531.667908,385.640961 521.949219,388.550690 
	C510.904816,391.857361 497.038452,385.189667 494.076324,375.147949 
	C490.146149,361.824493 496.794769,348.610443 509.313782,345.329712 
	C511.815918,344.674011 514.596924,345.082458 517.696899,345.000549 
z"/>
<path fill="#F2A283" opacity="1.000000" stroke="none" 
	d="
M448.803894,691.960876 
	C450.079559,690.441772 451.658356,688.952942 451.669067,687.452881 
	C451.700500,683.063843 454.194000,682.755493 457.537842,682.966675 
	C460.165314,683.132629 462.811615,683.000000 465.346252,683.000000 
	C468.588776,693.123352 459.546356,706.561951 447.477234,705.055664 
	C444.359863,704.666565 441.096527,705.349915 438.005310,704.867432 
	C430.587921,703.709656 426.643646,698.400330 425.408691,691.680176 
	C423.297699,680.192749 422.772552,668.601257 425.971497,657.077332 
	C427.639252,651.069458 431.613617,647.562805 437.068787,645.454712 
	C448.714600,640.954285 461.983948,647.253723 465.451508,659.014832 
	C466.003235,660.886108 466.158112,664.045898 465.093689,664.940002 
	C463.603455,666.191833 460.807404,666.057068 458.550659,666.191589 
	C454.440430,666.436646 451.477020,665.465393 450.457367,660.487366 
	C450.144043,658.957581 446.149048,657.211060 443.950134,657.346924 
	C442.204498,657.454773 439.580048,660.046570 439.152191,661.943054 
	C437.067352,671.184448 436.657318,680.688477 439.240204,689.823853 
	C440.450043,694.102783 444.769043,693.524475 448.803894,691.960876 
z"/>
<path fill="#F2A283" opacity="1.000000" stroke="none" 
	d="
M411.283264,666.665710 
	C406.861877,666.220703 403.416504,665.664368 402.427887,660.429932 
	C402.151917,658.968811 398.529541,657.259338 396.460236,657.282349 
	C394.648468,657.302368 391.628784,659.316162 391.266266,660.927063 
	C389.077545,670.653625 388.931824,680.549683 391.326904,690.275635 
	C391.628693,691.501038 394.485199,692.874268 396.104370,692.810730 
	C398.358948,692.722351 402.430664,691.474976 402.500031,690.495300 
	C403.204254,680.546814 410.396515,683.224304 416.125549,683.005920 
	C416.599548,682.987854 417.077271,683.068176 417.792053,683.120178 
	C418.966431,691.420837 416.170715,697.986572 409.523773,702.871155 
	C408.313141,703.760864 406.594788,704.294617 405.078735,704.373047 
	C399.816254,704.645203 394.391541,705.469727 389.302673,704.556580 
	C381.424286,703.142822 377.807587,696.861450 377.169006,688.980347 
	C376.445221,680.047302 376.674744,670.995300 377.092712,662.023071 
	C377.508331,653.101562 384.238525,644.230957 394.634583,645.061584 
	C399.289032,645.433472 404.124146,645.809082 408.460419,647.353394 
	C414.555481,649.523926 416.920776,655.153870 417.935852,661.129700 
	C418.749176,665.917847 415.667358,667.090149 411.283264,666.665710 
z"/>
<path fill="#F2A283" opacity="1.000000" stroke="none" 
	d="
M703.959351,688.998535 
	C694.825317,688.998474 686.186707,688.998474 677.271545,688.998474 
	C677.271545,685.828125 677.271545,682.748596 677.271545,679.333008 
	C688.841370,679.333008 700.561279,679.333008 712.641541,679.333008 
	C712.641541,682.316101 712.641541,685.371826 712.641541,688.998535 
	C710.001648,688.998535 707.228271,688.998535 703.959351,688.998535 
z"/>
<path fill="#000000" opacity="1.000000" stroke="none" 
	d="
M745.236328,661.858704 
	C747.351990,667.201599 743.154480,668.929565 740.125244,669.598816 
	C738.234497,670.016479 734.431274,667.596008 733.672119,665.612488 
	C732.971191,663.781067 734.493652,659.722473 736.265381,658.620850 
	C739.485107,656.619019 743.365723,656.776978 745.236328,661.858704 
z"/>
<path fill="#000000" opacity="1.000000" stroke="none" 
	d="
M745.807983,684.516907 
	C745.436157,688.851624 744.107971,692.500793 739.298218,691.830933 
	C737.082947,691.522400 733.748230,689.680725 733.394836,688.010681 
	C732.958313,685.947388 734.549072,682.785339 736.255615,681.105652 
	C738.454956,678.941040 741.389343,679.336487 743.549683,682.042542 
	C744.167053,682.815918 744.950928,683.456299 745.807983,684.516907 
z"/>
<path fill="#000000" opacity="1.000000" stroke="none" 
	d="
M496.865723,659.029419 
	C498.177887,661.065552 499.828857,663.064392 499.830658,665.064758 
	C499.837860,672.942566 499.242432,680.818787 499.041107,688.699890 
	C498.931152,693.004822 495.228607,692.736328 493.032715,692.734924 
	C491.017548,692.733643 487.691559,690.916870 487.207031,689.244141 
	C484.513428,679.945374 485.142059,670.324341 487.291473,661.087402 
	C488.273987,656.864990 492.853363,657.552795 496.865723,659.029419 
z"/>
<path fill="#000000" opacity="1.000000" stroke="none" 
	d="
M593.741699,676.351746 
	C593.940857,672.770996 594.096863,669.604675 593.967957,666.450073 
	C593.796143,662.245178 594.872681,658.927734 599.501282,658.043762 
	C603.205811,657.336304 607.391602,659.995056 607.656128,664.645325 
	C608.101746,672.480408 607.410767,680.392883 606.971313,688.260193 
	C606.742126,692.361572 603.461487,692.983093 600.262817,692.940796 
	C596.738403,692.894348 594.462402,690.850342 594.068909,687.342407 
	C593.676514,683.844177 593.719666,680.297058 593.741699,676.351746 
z"/>
<path fill="#000000" opacity="1.000000" stroke="none" 
	d="
M641.999329,683.939331 
	C641.999329,675.167114 641.999329,666.885498 641.999329,658.660828 
	C653.248718,656.470703 656.996948,659.546753 657.000183,670.690552 
	C657.001404,674.843018 657.239746,679.012634 656.942749,683.143799 
	C656.512878,689.122742 653.870728,693.040527 647.964539,692.048584 
	C646.210754,691.753967 644.365784,692.003052 641.999329,692.003052 
	C641.999329,689.295166 641.999329,686.862488 641.999329,683.939331 
z"/>
<path fill="#000000" opacity="1.000000" stroke="none" 
	d="
M347.017090,670.604614 
	C348.747009,673.273315 350.466278,676.312134 352.489105,679.887573 
	C349.140503,679.887573 346.845367,679.887573 344.054749,679.887573 
	C345.091736,676.756348 346.049103,673.865540 347.017090,670.604614 
z"/>
</svg>